<?xml version="1.0" encoding="UTF-8" standalone="no"?>
<!DOCTYPE svg PUBLIC "-//W3C//DTD SVG 1.1//EN" "http://www.w3.org/Graphics/SVG/1.1/DTD/svg11.dtd">
<svg xmlns:dc="http://purl.org/dc/elements/1.1/" version="1.1" xmlns="http://www.w3.org/2000/svg" xmlns:xl="http://www.w3.org/1999/xlink" viewBox="-812.6887 414.49925 2626.3488 791.00075" width="2626.3488" height="791.00075">
  <defs/>
  <g id="Canvas_1" fill-opacity="1" fill="none" stroke-opacity="1" stroke="none" stroke-dasharray="none">
    <title>Canvas 1</title>
    <rect fill="white" x="-812.6887" y="414.49925" width="2626.3488" height="791.00075"/>
    <g id="Canvas_1_Layer_1">
      <title>Layer 1</title>
      <g id="Group_30">
        <g id="Graphic_31">
          <line x1="210" y1="922.4992" x2="533.43646" y2="922.4992" stroke="black" stroke-linecap="butt" stroke-linejoin="round" stroke-width="1"/>
        </g>
      </g>
      <g id="Group_75">
        <g id="Group_79">
          <g id="Graphic_80">
            <rect x="-762.1887" y="645.00215" width="361.2878" height="420.0012" fill="#b0bbd6"/>
            <rect x="-762.1887" y="645.00215" width="361.2878" height="420.0012" stroke="black" stroke-linecap="butt" stroke-linejoin="round" stroke-width="1"/>
          </g>
        </g>
        <g id="Group_77">
          <g id="Graphic_78">
            <path d="M -373.69853 630.70425 L -400.9006 645.00425 L -762.1883 645.00425 L -737.429 630.70425 Z" fill="#b0bbd6"/>
            <path d="M -373.69853 630.70425 L -400.9006 645.00425 L -762.1883 645.00425 L -737.429 630.70425 Z" stroke="black" stroke-linecap="butt" stroke-linejoin="round" stroke-width="1"/>
          </g>
        </g>
        <g id="Graphic_76">
          <path d="M -373.6985 630.70425 L -373.6985 1050.7042 L -400.9005 1065.0042 L -399.6795 645.70425 Z" fill="#b0bbd6"/>
          <path d="M -373.6985 630.70425 L -373.6985 1050.7042 L -400.9005 1065.0042 L -399.6795 645.70425 Z" stroke="black" stroke-linecap="butt" stroke-linejoin="round" stroke-width="1"/>
        </g>
      </g>
      <g id="Group_70">
        <g id="Group_73">
          <g id="Graphic_74">
            <rect x="416.52684" y="479.99985" width="519.61486" height="660.00015" fill="#b0bbd6"/>
            <rect x="416.52684" y="479.99985" width="519.61486" height="660.00015" stroke="black" stroke-linecap="butt" stroke-linejoin="round" stroke-width="1"/>
          </g>
        </g>
        <g id="Graphic_72">
          <path d="M 962.1155 464.99925 L 936.1355 479.99925 L 416.52546 479.99925 L 442.50546 464.99925 Z" fill="#b0bbd6"/>
          <path d="M 962.1155 464.99925 L 936.1355 479.99925 L 416.52546 479.99925 L 442.50546 464.99925 Z" stroke="black" stroke-linecap="butt" stroke-linejoin="round" stroke-width="1"/>
        </g>
        <g id="Graphic_71">
          <path d="M 962.1155 464.99925 L 962.1155 1124.9992 L 936.1355 1139.9992 L 936.1355 479.99925 Z" fill="#b0bbd6"/>
          <path d="M 962.1155 464.99925 L 962.1155 1124.9992 L 936.1355 1139.9992 L 936.1355 479.99925 Z" stroke="black" stroke-linecap="butt" stroke-linejoin="round" stroke-width="1"/>
        </g>
      </g>
      <g id="Group_65">
        <g id="Group_68">
          <g id="Graphic_69">
            <rect x="1165.61" y="494.99985" width="571.5777" height="660.00015" fill="#b0bbd6"/>
            <rect x="1165.61" y="494.99985" width="571.5777" height="660.00015" stroke="black" stroke-linecap="butt" stroke-linejoin="round" stroke-width="1"/>
          </g>
        </g>
        <g id="Graphic_67">
          <path d="M 1763.16 479.99925 L 1737.18 494.99925 L 1165.6101 494.99925 L 1191.5901 479.99925 Z" fill="#b0bbd6"/>
          <path d="M 1763.16 479.99925 L 1737.18 494.99925 L 1165.6101 494.99925 L 1191.5901 479.99925 Z" stroke="black" stroke-linecap="butt" stroke-linejoin="round" stroke-width="1"/>
        </g>
        <g id="Graphic_66">
          <path d="M 1763.16 479.99925 L 1763.16 1139.9992 L 1737.18 1154.9992 L 1737.18 494.99925 Z" fill="#b0bbd6"/>
          <path d="M 1763.16 479.99925 L 1763.16 1139.9992 L 1737.18 1154.9992 L 1737.18 494.99925 Z" stroke="black" stroke-linecap="butt" stroke-linejoin="round" stroke-width="1"/>
        </g>
      </g>
      <g id="Group_60">
        <g id="Group_63">
          <g id="Graphic_64">
            <rect x="-177.62134" y="847.4986" width="363.72973" height="149.99985" fill="#b0bbd6"/>
            <rect x="-177.62134" y="847.4986" width="363.72973" height="149.99985" stroke="black" stroke-linecap="butt" stroke-linejoin="round" stroke-width="1"/>
          </g>
        </g>
        <g id="Graphic_62">
          <path d="M 212.0889 832.49925 L 186.1089 847.4992 L -177.6211 847.4992 L -151.3391 832.32925 Z" fill="#b0bbd6"/>
          <path d="M 212.0889 832.49925 L 186.1089 847.4992 L -177.6211 847.4992 L -151.3391 832.32925 Z" stroke="black" stroke-linecap="butt" stroke-linejoin="round" stroke-width="1"/>
        </g>
        <g id="Graphic_61">
          <path d="M 212.0889 832.49925 L 212.0889 982.4992 L 186.1089 997.4992 L 186.1089 847.4992 Z" fill="#b0bbd6"/>
          <path d="M 212.0889 832.49925 L 212.0889 982.4992 L 186.1089 997.4992 L 186.1089 847.4992 Z" stroke="black" stroke-linecap="butt" stroke-linejoin="round" stroke-width="1"/>
        </g>
      </g>
      <g id="Group_55">
        <g id="Group_58">
          <g id="Graphic_59">
            <rect x="494.405" y="659.92895" width="363.73057" height="420.1384" fill="#ffe5d1"/>
            <rect x="494.405" y="659.92895" width="363.73057" height="420.1384" stroke="black" stroke-linecap="butt" stroke-linejoin="round" stroke-width="1"/>
          </g>
        </g>
        <g id="Graphic_57">
          <path d="M 884.1201 644.93005 L 858.1401 659.93005 L 494.41006 659.93005 L 520.39006 644.93005 Z" fill="#ffe5d1"/>
          <path d="M 884.1201 644.93005 L 858.1401 659.93005 L 494.41006 659.93005 L 520.39006 644.93005 Z" stroke="black" stroke-linecap="butt" stroke-linejoin="round" stroke-width="1"/>
        </g>
        <g id="Graphic_56">
          <path d="M 884.1201 644.93005 L 884.2401 1065 L 858.2601 1080 L 858.1401 659.93005 Z" fill="#ffe5d1"/>
          <path d="M 884.1201 644.93005 L 884.2401 1065 L 858.2601 1080 L 858.1401 659.93005 Z" stroke="black" stroke-linecap="butt" stroke-linejoin="round" stroke-width="1"/>
        </g>
      </g>
      <g id="Group_50">
        <g id="Group_53">
          <g id="Graphic_54">
            <rect x="533.5238" y="862.4447" width="259.80796" height="150.00046" fill="white"/>
            <rect x="533.5238" y="862.4447" width="259.80796" height="150.00046" stroke="black" stroke-linecap="butt" stroke-linejoin="round" stroke-width="1"/>
          </g>
        </g>
        <g id="Graphic_52">
          <path d="M 819.1397 847.5511 L 792.9697 862.4511 L 533.52966 862.4511 L 559.32966 847.5511 Z" fill="white"/>
          <path d="M 819.1397 847.5511 L 792.9697 862.4511 L 533.52966 862.4511 L 559.32966 847.5511 Z" stroke="black" stroke-linecap="butt" stroke-linejoin="round" stroke-width="1"/>
        </g>
        <g id="Graphic_51">
          <path d="M 819.1397 847.5511 L 819.1397 997.5511 L 793.3297 1012.4511 L 792.9697 862.4511 Z" fill="white"/>
          <path d="M 819.1397 847.5511 L 819.1397 997.5511 L 793.3297 1012.4511 L 792.9697 862.4511 Z" stroke="black" stroke-linecap="butt" stroke-linejoin="round" stroke-width="1"/>
        </g>
      </g>
      <g id="Group_45">
        <g id="Group_48">
          <g id="Graphic_49">
            <rect x="-723.0358" y="862.3928" width="259.80796" height="150.00046" fill="white"/>
            <rect x="-723.0358" y="862.3928" width="259.80796" height="150.00046" stroke="black" stroke-linecap="butt" stroke-linejoin="round" stroke-width="1"/>
          </g>
        </g>
        <g id="Graphic_47">
          <path d="M -437.42 847.4992 L -463.59 862.3992 L -723.03 862.3992 L -697.23 847.4992 Z" fill="white"/>
          <path d="M -437.42 847.4992 L -463.59 862.3992 L -723.03 862.3992 L -697.23 847.4992 Z" stroke="black" stroke-linecap="butt" stroke-linejoin="round" stroke-width="1"/>
        </g>
        <g id="Graphic_46">
          <path d="M -437.42 847.4992 L -437.42 997.4992 L -463.23 1012.3992 L -463.59 862.3992 Z" fill="white"/>
          <path d="M -437.42 847.4992 L -437.42 997.4992 L -463.23 1012.3992 L -463.59 862.3992 Z" stroke="black" stroke-linecap="butt" stroke-linejoin="round" stroke-width="1"/>
        </g>
      </g>
      <g id="Group_40">
        <g id="Group_43">
          <g id="Graphic_44">
            <rect x="1243.5451" y="675.0026" width="415.6916" height="419.99994" fill="#ffe5d1"/>
            <rect x="1243.5451" y="675.0026" width="415.6916" height="419.99994" stroke="black" stroke-linecap="butt" stroke-linejoin="round" stroke-width="1"/>
          </g>
        </g>
        <g id="Graphic_42">
          <path d="M 1685.224 659.99925 L 1659.244 674.99925 L 1243.5441 674.99925 L 1269.5341 659.99925 Z" fill="#ffe5d1"/>
          <path d="M 1685.224 659.99925 L 1659.244 674.99925 L 1243.5441 674.99925 L 1269.5341 659.99925 Z" stroke="black" stroke-linecap="butt" stroke-linejoin="round" stroke-width="1"/>
        </g>
        <g id="Graphic_41">
          <path d="M 1685.224 659.99925 L 1685.224 1079.9992 L 1659.244 1094.9992 L 1659.244 674.99925 Z" fill="#ffe5d1"/>
          <path d="M 1685.224 659.99925 L 1685.224 1079.9992 L 1659.244 1094.9992 L 1659.244 674.99925 Z" stroke="black" stroke-linecap="butt" stroke-linejoin="round" stroke-width="1"/>
        </g>
      </g>
      <g id="Group_34">
        <g id="Group_38">
          <g id="Graphic_39">
            <rect x="1282.6141" y="817.4465" width="311.7694" height="209.99956" fill="white"/>
            <rect x="1282.6141" y="817.4465" width="311.7694" height="209.99956" stroke="black" stroke-linecap="butt" stroke-linejoin="round" stroke-width="1"/>
          </g>
        </g>
        <g id="Graphic_37">
          <path d="M 1620.364 802.44735 L 1593.804 817.77735 L 1282.6141 817.44735 L 1308.5941 802.44735 Z" fill="white"/>
          <path d="M 1620.364 802.44735 L 1593.804 817.77735 L 1282.6141 817.44735 L 1308.5941 802.44735 Z" stroke="black" stroke-linecap="butt" stroke-linejoin="round" stroke-width="1"/>
        </g>
        <g id="Group_35">
          <g id="Graphic_36">
            <path d="M 1620.3564 802.4482 L 1620.3564 1012.4475 L 1594.3757 1027.4486 L 1594.3757 817.9537 Z" fill="white"/>
            <path d="M 1620.3564 802.4482 L 1620.3564 1012.4475 L 1594.3757 1027.4486 L 1594.3757 817.9537 Z" stroke="black" stroke-linecap="butt" stroke-linejoin="round" stroke-width="1"/>
          </g>
        </g>
      </g>
      <g id="Group_32">
        <g id="Graphic_33">
          <line x1="-437.429" y1="922.4992" x2="-177.621" y2="922.4992" stroke="black" stroke-linecap="butt" stroke-linejoin="round" stroke-width="1"/>
        </g>
      </g>
      <g id="Group_28">
        <g id="Graphic_29">
          <line x1="820" y1="922.4992" x2="1282.5199" y2="922.4992" stroke="black" stroke-linecap="butt" stroke-linejoin="round" stroke-width="1"/>
        </g>
      </g>
      <g id="Graphic_81">
        <text transform="translate(-715 875)" fill="black">
          <tspan font-family="Helvetica Neue" font-size="24" fill="black" x="24.388" y="23" xml:space="preserve">&lt;&lt;web browser&gt;&gt;</tspan>
        </text>
      </g>
      <g id="Graphic_83">
        <text transform="translate(-170 860)" fill="black">
          <tspan font-family="Helvetica Neue" font-size="24" fill="black" x="73.528" y="23" xml:space="preserve">&lt;&lt;load balancer&gt;&gt;</tspan>
        </text>
      </g>
      <g id="Graphic_84">
        <text transform="translate(421.53846 495)" fill="black">
          <tspan font-family="Helvetica Neue" font-size="24" fill="black" x="191.088" y="23" xml:space="preserve">&lt;&lt;device&gt;&gt;</tspan>
        </text>
      </g>
      <g id="Graphic_85">
        <text transform="translate(1173.1601 505)" fill="black">
          <tspan font-family="Helvetica Neue" font-size="24" fill="black" x="213.588" y="23" xml:space="preserve">&lt;&lt;device&gt;&gt;</tspan>
        </text>
      </g>
      <g id="Graphic_86">
        <text transform="translate(-755 655)" fill="black">
          <tspan font-family="Helvetica Neue" font-size="24" fill="black" x="111.088" y="23" xml:space="preserve">&lt;&lt;device&gt;&gt;</tspan>
        </text>
      </g>
      <g id="Graphic_87">
        <text transform="translate(1248.1601 690)" fill="black">
          <tspan font-family="Helvetica Neue" font-size="24" fill="black" x="155.916" y="23" xml:space="preserve">&lt;&lt;VM&gt;&gt;</tspan>
        </text>
      </g>
      <g id="Graphic_88">
        <text transform="translate(501.53846 675)" fill="black">
          <tspan font-family="Helvetica Neue" font-size="24" fill="black" x="128.416" y="23" xml:space="preserve">&lt;&lt;VM&gt;&gt;</tspan>
        </text>
      </g>
      <g id="Graphic_89">
        <text transform="translate(541.53846 875)" fill="black">
          <tspan font-family="Helvetica Neue" font-size="24" fill="black" x="35.26" y="23" xml:space="preserve">&lt;&lt;j2ee server&gt;&gt;</tspan>
        </text>
      </g>
      <g id="Graphic_90">
        <text transform="translate(1288.1601 830)" fill="black">
          <tspan font-family="Helvetica Neue" font-size="24" fill="black" x="35.196" y="23" xml:space="preserve">&lt;&lt;database server&gt;&gt;</tspan>
        </text>
      </g>
      <g id="Graphic_91">
        <text transform="translate(-370 860)" fill="black">
          <tspan font-family="Helvetica Neue" font-size="24" fill="black" x="21.752" y="23" xml:space="preserve">&lt;&lt;protocol&gt;&gt;</tspan>
          <tspan font-family="Helvetica Neue" font-size="24" fill="black" x="64.784" y="51.672" xml:space="preserve">HTTP</tspan>
        </text>
      </g>
      <g id="Graphic_92">
        <text transform="translate(220 860)" fill="black">
          <tspan font-family="Helvetica Neue" font-size="24" fill="black" x="21.752" y="23" xml:space="preserve">&lt;&lt;protocol&gt;&gt;</tspan>
          <tspan font-family="Helvetica Neue" font-size="24" fill="black" x="64.784" y="51.672" xml:space="preserve">HTTP</tspan>
        </text>
      </g>
      <g id="Graphic_93">
        <text transform="translate(970 862.656)" fill="black">
          <tspan font-family="Helvetica Neue" font-size="24" fill="black" x="21.752" y="23" xml:space="preserve">&lt;&lt;protocol&gt;&gt;</tspan>
          <tspan font-family="Helvetica Neue" font-size="24" fill="black" x="56.792" y="51.672" xml:space="preserve">TCP/IP</tspan>
        </text>
      </g>
    </g>
  </g>
</svg>
