<?xml version="1.0" encoding="UTF-8" standalone="no"?>
<!DOCTYPE svg PUBLIC "-//W3C//DTD SVG 1.1//EN" "http://www.w3.org/Graphics/SVG/1.1/DTD/svg11.dtd">
<svg xmlns="http://www.w3.org/2000/svg" version="1.1" xmlns:dc="http://purl.org/dc/elements/1.1/" xmlns:xl="http://www.w3.org/1999/xlink" viewBox="6.4475625 5.9894365 620.445 304.02113" width="620.445" height="304.02113">
  <defs>
    <marker orient="auto" overflow="visible" markerUnits="strokeWidth" id="SharpArrow_Marker" stroke-linejoin="miter" stroke-miterlimit="10" viewBox="-3 -3 7 6" markerWidth="7" markerHeight="6" color="#444">
      <g>
        <path d="M 3 0 L -1.8 -1.8 L 0 0 L 0 0 L -1.8 1.8 Z" fill="currentColor" stroke="currentColor" stroke-width="1"/>
      </g>
    </marker>
  </defs>
  <g id="Canvas_1" fill-opacity="1" stroke-dasharray="none" stroke-opacity="1" fill="none" stroke="none">
    <title>Canvas 1</title>
    <rect fill="white" x="6.4475625" y="5.9894365" width="620.445" height="304.02113"/>
    <g id="Canvas_1_Layer_1">
      <title>Layer 1</title>
      <g id="Group_2">
        <g id="Graphic_79">
          <circle cx="269.68856" cy="132.98956" r="127.000266433642" fill="#c0ffff"/>
        </g>
        <g id="Graphic_78">
          <circle cx="358.72656" cy="132.98956" r="98.1742059594991" fill="#ffffc0"/>
        </g>
        <g id="Group_74">
          <g id="Graphic_77">
            <path d="M 215.69156 124.45856 L 215.69156 133.69656 C 215.69156 134.75156 215.46456 135.67456 215.01256 136.46556 C 214.56056 137.25656 213.90656 137.86456 213.04956 138.29156 C 212.19256 138.71856 211.16956 138.93156 209.97856 138.93156 C 208.20756 138.93156 206.83156 138.46256 205.84756 137.52556 C 204.86356 136.58856 204.37256 135.29856 204.37256 133.65856 L 204.37256 124.45956 L 206.71656 124.45956 L 206.71656 133.49256 C 206.71656 134.67156 206.98956 135.54056 207.53656 136.09956 C 208.08356 136.65856 208.92356 136.93956 210.05656 136.93956 C 212.25656 136.93956 213.35756 135.78456 213.35756 133.47256 L 213.35756 124.45856 L 215.69156 124.45856 Z" fill="#222"/>
          </g>
          <g id="Graphic_76">
            <path d="M 225.51556 138.73656 L 221.37456 126.81256 L 221.29656 126.81256 C 221.40656 128.58356 221.46256 130.24356 221.46256 131.79256 L 221.46256 138.73556 L 219.34356 138.73556 L 219.34356 124.45856 L 222.63456 124.45856 L 226.59956 135.81556 L 226.65856 135.81556 L 230.74056 124.45856 L 234.04156 124.45856 L 234.04156 138.73556 L 231.79556 138.73556 L 231.79556 131.67456 C 231.79556 130.96456 231.81356 130.04056 231.84956 128.90156 C 231.88556 127.76256 231.91556 127.07256 231.94256 126.83156 L 231.86456 126.83156 L 227.57756 138.73556 L 225.51556 138.73556 Z" fill="#222"/>
          </g>
          <g id="Graphic_75">
            <path d="M 237.80056 138.73656 L 237.80056 124.45956 L 240.13456 124.45956 L 240.13456 136.73456 L 246.17956 136.73456 L 246.17956 138.73656 Z" fill="#222"/>
          </g>
        </g>
        <g id="Group_68">
          <g id="Graphic_73">
            <path d="M 375.59656 134.85956 C 375.59656 136.12956 375.13756 137.12556 374.21956 137.84756 C 373.30156 138.56956 372.03456 138.93156 370.42056 138.93156 C 368.80656 138.93156 367.48356 138.68056 366.45556 138.17956 L 366.45556 135.97256 C 367.10656 136.27856 367.79856 136.51956 368.53056 136.69556 C 369.26256 136.87156 369.94456 136.95956 370.57656 136.95956 C 371.50156 136.95956 372.18256 136.78356 372.62256 136.43256 C 373.06256 136.08156 373.28156 135.60956 373.28156 135.01656 C 373.28156 134.48256 373.07956 134.03056 372.67656 133.65956 C 372.27356 133.28856 371.43956 132.84856 370.17656 132.34156 C 368.87456 131.81456 367.95656 131.21156 367.42256 130.53456 C 366.88856 129.85756 366.62156 129.04356 366.62156 128.09356 C 366.62156 126.90256 367.04456 125.96456 367.89156 125.28156 C 368.73856 124.59856 369.87356 124.25656 371.29956 124.25656 C 372.66656 124.25656 374.02756 124.55656 375.38156 125.15456 L 374.63956 127.05856 C 373.36956 126.52456 372.23756 126.25756 371.24156 126.25756 C 370.48656 126.25756 369.91356 126.42156 369.52256 126.75056 C 369.13156 127.07956 368.93656 127.51456 368.93656 128.05456 C 368.93656 128.42556 369.01456 128.74256 369.17056 129.00656 C 369.32656 129.27056 369.58356 129.51956 369.94156 129.75356 C 370.29956 129.98756 370.94456 130.29756 371.87556 130.68156 C 372.92356 131.11856 373.69156 131.52456 374.18056 131.90256 C 374.66956 132.28056 375.02756 132.70656 375.25456 133.18156 C 375.48156 133.65656 375.59656 134.21456 375.59656 134.85956 Z" fill="#222"/>
          </g>
          <g id="Graphic_72">
            <path d="M 376.47556 127.93556 L 378.97556 127.93556 L 381.17256 134.05856 C 381.50456 134.93056 381.72656 135.75056 381.83656 136.51956 L 381.91456 136.51956 C 381.97356 136.16156 382.08056 135.72656 382.23656 135.21556 C 382.39256 134.70456 383.21956 132.27756 384.71656 127.93556 L 387.19756 127.93556 L 382.57756 140.17156 C 381.73756 142.41756 380.33856 143.54056 378.37856 143.54056 C 377.87056 143.54056 377.37556 143.48456 376.89456 143.37456 L 376.89456 141.55856 C 377.23956 141.63656 377.63356 141.67556 378.07656 141.67556 C 379.18256 141.67556 379.96156 141.03356 380.41056 139.75156 L 380.81056 138.73556 Z" fill="#222"/>
          </g>
          <g id="Graphic_71">
            <path d="M 396.09456 135.65956 C 396.09456 136.71456 395.71056 137.52256 394.94256 138.08656 C 394.17456 138.65056 393.07456 138.93156 391.64156 138.93156 C 390.20356 138.93156 389.04656 138.71356 388.17456 138.27756 L 388.17456 136.29556 C 389.44456 136.88156 390.62556 137.17456 391.71956 137.17456 C 393.13256 137.17456 393.83856 136.74756 393.83856 135.89556 C 393.83856 135.62256 393.76056 135.39456 393.60456 135.21156 C 393.44856 135.02856 393.19156 134.84056 392.83356 134.64556 C 392.47556 134.45056 391.97756 134.22856 391.33956 133.98156 C 390.09656 133.50056 389.25456 133.01756 388.81556 132.53656 C 388.37656 132.05556 388.15656 131.43056 388.15656 130.66156 C 388.15656 129.73656 388.52956 129.01856 389.27456 128.50856 C 390.01956 127.99856 391.03456 127.74156 392.31656 127.74156 C 393.58656 127.74156 394.78756 127.99856 395.92056 128.51256 L 395.17856 130.24156 C 394.01356 129.76056 393.03256 129.51856 392.23956 129.51856 C 391.02856 129.51856 390.42356 129.86356 390.42356 130.55356 C 390.42356 130.89256 390.58156 131.17856 390.89756 131.41256 C 391.21356 131.64656 391.90156 131.96956 392.96256 132.37956 C 393.85456 132.72456 394.50256 133.04056 394.90556 133.32656 C 395.30856 133.61256 395.60856 133.94356 395.80356 134.31756 C 395.99856 134.69156 396.09456 135.13956 396.09456 135.65956 Z" fill="#222"/>
          </g>
          <g id="Graphic_70">
            <path d="M 404.99156 138.73656 L 400.85056 126.81256 L 400.77256 126.81256 C 400.88256 128.58356 400.93856 130.24356 400.93856 131.79256 L 400.93856 138.73556 L 398.81956 138.73556 L 398.81956 124.45856 L 402.11056 124.45856 L 406.07556 135.81556 L 406.13456 135.81556 L 410.21656 124.45856 L 413.51756 124.45856 L 413.51756 138.73556 L 411.27156 138.73556 L 411.27156 131.67456 C 411.27156 130.96456 411.28956 130.04056 411.32556 128.90156 C 411.36156 127.76256 411.39156 127.07256 411.41856 126.83156 L 411.34056 126.83156 L 407.05356 138.73556 L 404.99156 138.73556 Z" fill="#222"/>
          </g>
          <g id="Graphic_69">
            <path d="M 417.27656 138.73656 L 417.27656 124.45956 L 419.61056 124.45956 L 419.61056 136.73456 L 425.65556 136.73456 L 425.65556 138.73656 Z" fill="#222"/>
          </g>
        </g>
        <g id="Group_49">
          <g id="Graphic_67">
            <path d="M 14.811562 207.16056 L 13.391562 207.16056 L 7.5385625 198.17456 L 7.4795625 198.17456 C 7.5575625 199.22956 7.5965625 200.19556 7.5965625 201.07456 L 7.5965625 207.16056 L 6.4475625 207.16056 L 6.4475625 196.45256 L 7.8535625 196.45256 L 13.690562 205.40256 L 13.749563 205.40256 C 13.739563 205.27056 13.717563 204.84656 13.684563 204.13156 C 13.649563 203.41556 13.637563 202.90356 13.647562 202.59756 L 13.647562 196.45156 L 14.811563 196.45156 L 14.811563 207.16056 Z" fill="#222"/>
          </g>
          <g id="Graphic_66">
            <path d="M 24.501562 203.13856 C 24.501562 204.44856 24.172563 205.46956 23.512563 206.20356 C 22.854562 206.93856 21.943562 207.30656 20.781562 207.30656 C 20.063562 207.30656 19.427562 207.13856 18.870562 206.80056 C 18.313563 206.46456 17.883562 205.98056 17.581562 205.35156 C 17.277563 204.72056 17.126562 203.98456 17.126562 203.13856 C 17.126562 201.83056 17.453562 200.81156 18.108562 200.08056 C 18.761562 199.35156 19.670562 198.98556 20.833562 198.98556 C 21.955562 198.98556 22.848562 199.35856 23.510562 200.10656 C 24.170562 200.85356 24.501562 201.86556 24.501562 203.13856 Z M 18.385562 203.13856 C 18.385562 204.16356 18.590562 204.94656 19.000563 205.48256 C 19.410563 206.02056 20.014563 206.28956 20.810562 206.28956 C 21.606562 206.28956 22.210562 206.02156 22.622563 205.48656 C 23.035562 204.95256 23.241562 204.17056 23.241562 203.13856 C 23.241562 202.11856 23.035562 201.34356 22.622563 200.81356 C 22.210562 200.28456 21.601562 200.01956 20.795563 200.01956 C 19.999563 200.01956 19.399562 200.28056 18.993562 200.80256 C 18.587562 201.32456 18.385562 202.10456 18.385562 203.13856 Z" fill="#222"/>
          </g>
          <g id="Graphic_65">
            <path d="M 29.225563 206.30256 C 29.440563 206.30256 29.647562 206.28656 29.847562 206.25556 C 30.047562 206.22356 30.206562 206.19156 30.324562 206.15556 L 30.324562 207.08656 C 30.192563 207.14956 29.998563 207.20256 29.742563 207.24356 C 29.485563 207.28556 29.255562 207.30556 29.050563 207.30556 C 27.497563 207.30556 26.721563 206.48856 26.721563 204.85256 L 26.721563 200.07756 L 25.571562 200.07756 L 25.571562 199.49156 L 26.721563 198.98556 L 27.234563 197.27156 L 27.937563 197.27156 L 27.937563 199.13156 L 30.266563 199.13156 L 30.266563 200.07656 L 27.936562 200.07656 L 27.936562 204.80056 C 27.936562 205.28356 28.050563 205.65456 28.281563 205.91356 C 28.509562 206.17456 28.825562 206.30256 29.225563 206.30256 Z" fill="#222"/>
          </g>
          <g id="Graphic_64">
            <path d="M 39.486562 198.98656 C 39.842562 198.98656 40.162562 199.01556 40.445562 199.07456 L 40.277562 200.20256 C 39.945562 200.12956 39.652562 200.09256 39.398562 200.09256 C 38.749562 200.09256 38.193562 200.35656 37.732562 200.88356 C 37.270562 201.41056 37.040562 202.06856 37.040562 202.85456 L 37.040562 207.16156 L 35.824562 207.16156 L 35.824562 199.13456 L 36.828562 199.13456 L 36.967562 200.62056 L 37.026562 200.62056 C 37.324562 200.09956 37.682562 199.69556 38.102562 199.41256 C 38.522562 199.12956 38.983562 198.98656 39.486562 198.98656 Z" fill="#222"/>
          </g>
          <g id="Graphic_63">
            <path d="M 45.33756 207.30656 C 44.15156 207.30656 43.21556 206.94556 42.52856 206.22256 C 41.842562 205.49956 41.499563 204.49656 41.499563 203.21256 C 41.499563 201.91856 41.818563 200.89056 42.45556 200.12856 C 43.09356 199.36656 43.94856 198.98556 45.02256 198.98556 C 46.02856 198.98556 46.82456 199.31656 47.41056 199.97756 C 47.99656 200.63956 48.28956 201.51256 48.28956 202.59656 L 48.28956 203.36556 L 42.75956 203.36556 C 42.78356 204.30756 43.02256 205.02356 43.47456 205.51156 C 43.92556 206.00056 44.56256 206.24356 45.38256 206.24356 C 46.24556 206.24356 47.10056 206.06356 47.94456 205.70256 L 47.94456 206.78656 C 47.51456 206.97256 47.10856 207.10456 46.72556 207.18456 C 46.34256 207.26656 45.88056 207.30656 45.33756 207.30656 Z M 45.00856 200.00456 C 44.36356 200.00456 43.85056 200.21556 43.46656 200.63556 C 43.08356 201.05556 42.85756 201.63656 42.78856 202.37756 L 46.98556 202.37756 C 46.98556 201.61156 46.81456 201.02356 46.47256 200.61656 C 46.13156 200.20856 45.64356 200.00456 45.00856 200.00456 Z" fill="#222"/>
          </g>
          <g id="Graphic_62">
            <path d="M 53.21256 207.30656 C 52.17656 207.30656 51.36856 206.94356 50.78756 206.21456 C 50.20656 205.48756 49.91556 204.47256 49.91556 203.16756 C 49.91556 201.85556 50.20856 200.82956 50.79456 200.09156 C 51.38056 199.35556 52.19556 198.98656 53.24156 198.98656 C 54.33956 198.98656 55.18356 199.40156 55.77456 200.23156 L 55.84056 200.23156 L 56.01656 199.13256 L 56.97556 199.13256 L 56.97556 210.76356 L 55.76056 210.76356 L 55.76056 207.32756 C 55.76056 206.84056 55.78656 206.42556 55.84056 206.08356 L 55.74456 206.08356 C 55.18456 206.89956 54.33956 207.30656 53.21256 207.30656 Z M 53.39556 206.28956 C 54.20656 206.28956 54.79656 206.07156 55.16756 205.63756 C 55.53856 205.20356 55.73556 204.47056 55.76156 203.44056 L 55.76156 203.16956 C 55.76156 202.04756 55.57056 201.23856 55.18956 200.74556 C 54.80856 200.25256 54.20656 200.00556 53.38056 200.00556 C 52.66756 200.00556 52.12156 200.28256 51.74356 200.83756 C 51.36456 201.39156 51.17556 202.17356 51.17556 203.18556 C 51.17556 204.19556 51.36356 204.96556 51.73656 205.49656 C 52.11056 206.02356 52.66356 206.28956 53.39556 206.28956 Z" fill="#222"/>
          </g>
          <g id="Graphic_61">
            <path d="M 60.69756 199.13356 L 60.69756 204.34056 C 60.69756 204.99556 60.84556 205.48356 61.14456 205.80556 C 61.44156 206.12756 61.90856 206.28956 62.54256 206.28956 C 63.38256 206.28956 63.99656 206.06056 64.38456 205.60056 C 64.77356 205.14256 64.96656 204.39256 64.96656 203.35256 L 64.96656 199.13356 L 66.18356 199.13356 L 66.18356 207.16056 L 65.17956 207.16056 L 65.00356 206.08456 L 64.93756 206.08456 C 64.68956 206.47956 64.34356 206.78256 63.90156 206.99256 C 63.46056 207.20156 62.95556 207.30656 62.38856 207.30656 C 61.41156 207.30656 60.68156 207.07556 60.19556 206.61156 C 59.71056 206.14756 59.46656 205.40556 59.46656 204.38456 L 59.46656 199.13256 L 60.69756 199.13256 Z" fill="#222"/>
          </g>
          <g id="Graphic_60">
            <path d="M 68.65956 196.95756 C 68.65956 196.68056 68.72756 196.47656 68.86456 196.34656 C 69.00156 196.21756 69.17256 196.15356 69.37756 196.15356 C 69.57256 196.15356 69.74056 196.21856 69.88356 196.35056 C 70.02456 196.48256 70.09556 196.68556 70.09556 196.95756 C 70.09556 197.23156 70.02456 197.43556 69.88356 197.56956 C 69.74056 197.70356 69.57256 197.77056 69.37756 197.77056 C 69.17256 197.77056 69.00156 197.70356 68.86456 197.56956 C 68.72756 197.43456 68.65956 197.23156 68.65956 196.95756 Z M 69.97756 207.16056 L 68.76156 207.16056 L 68.76156 199.13356 L 69.97756 199.13356 Z" fill="#222"/>
          </g>
          <g id="Graphic_59">
            <path d="M 76.21756 198.98656 C 76.57356 198.98656 76.89356 199.01556 77.17656 199.07456 L 77.00856 200.20256 C 76.67656 200.12956 76.38356 200.09256 76.12956 200.09256 C 75.48056 200.09256 74.92456 200.35656 74.46356 200.88356 C 74.00156 201.41056 73.77156 202.06856 73.77156 202.85456 L 73.77156 207.16156 L 72.55556 207.16156 L 72.55556 199.13456 L 73.55956 199.13456 L 73.69856 200.62056 L 73.75756 200.62056 C 74.05556 200.09956 74.41356 199.69556 74.83356 199.41256 C 75.25356 199.12956 75.71456 198.98656 76.21756 198.98656 Z" fill="#222"/>
          </g>
          <g id="Graphic_58">
            <path d="M 82.06956 207.30656 C 80.88356 207.30656 79.94756 206.94556 79.26056 206.22256 C 78.57456 205.49956 78.23156 204.49656 78.23156 203.21256 C 78.23156 201.91856 78.55056 200.89056 79.18756 200.12856 C 79.82556 199.36656 80.68056 198.98556 81.75456 198.98556 C 82.76056 198.98556 83.55656 199.31656 84.14256 199.97756 C 84.72856 200.63956 85.02156 201.51256 85.02156 202.59656 L 85.02156 203.36556 L 79.49156 203.36556 C 79.51556 204.30756 79.75456 205.02356 80.20656 205.51156 C 80.65756 206.00056 81.29456 206.24356 82.11456 206.24356 C 82.97756 206.24356 83.83256 206.06356 84.67656 205.70256 L 84.67656 206.78656 C 84.24656 206.97256 83.84056 207.10456 83.45756 207.18456 C 83.07456 207.26656 82.61256 207.30656 82.06956 207.30656 Z M 81.74056 200.00456 C 81.09556 200.00456 80.58256 200.21556 80.19856 200.63556 C 79.81556 201.05556 79.58956 201.63656 79.52056 202.37756 L 83.71756 202.37756 C 83.71756 201.61156 83.54656 201.02356 83.20456 200.61656 C 82.86356 200.20856 82.37456 200.00456 81.74056 200.00456 Z" fill="#222"/>
          </g>
          <g id="Graphic_57">
            <path d="M 92.55756 206.08456 L 92.49256 206.08456 C 91.93056 206.89956 91.09056 207.30756 89.97256 207.30756 C 88.92156 207.30756 88.10556 206.94856 87.52256 206.23156 C 86.93856 205.51256 86.64656 204.49356 86.64656 203.16956 C 86.64656 201.84756 86.93956 200.81856 87.52556 200.08656 C 88.11156 199.35456 88.92656 198.98756 89.97256 198.98756 C 91.06056 198.98756 91.89556 199.38356 92.47656 200.17456 L 92.57256 200.17456 L 92.52156 199.59556 L 92.49256 199.03256 L 92.49256 195.76556 L 93.70756 195.76556 L 93.70756 207.16156 L 92.71956 207.16156 Z M 90.12556 206.28956 C 90.95556 206.28956 91.55756 206.06256 91.93156 205.61156 C 92.30456 205.15956 92.49256 204.43056 92.49256 203.42456 L 92.49256 203.16756 C 92.49256 202.03056 92.30356 201.21856 91.92456 200.73256 C 91.54656 200.24656 90.94256 200.00356 90.11256 200.00356 C 89.39956 200.00356 88.85356 200.28056 88.47556 200.83556 C 88.09656 201.38956 87.90756 202.17156 87.90756 203.18356 C 87.90756 204.20856 88.09556 204.98256 88.47156 205.50456 C 88.84756 206.02656 89.39856 206.28956 90.12556 206.28956 Z" fill="#222"/>
          </g>
          <g id="Graphic_56">
            <path d="M 22.549562 220.00156 C 23.604562 220.00156 24.423562 220.36156 25.006562 221.08156 C 25.590562 221.80256 25.882562 222.82056 25.882562 224.13956 C 25.882562 225.45856 25.587562 226.48256 24.999562 227.21256 C 24.410563 227.94156 23.594563 228.30756 22.549562 228.30756 C 22.027563 228.30756 21.549563 228.21056 21.117562 228.01856 C 20.684562 227.82556 20.322562 227.52956 20.029562 227.12756 L 19.941563 227.12756 L 19.684562 228.16056 L 18.813563 228.16056 L 18.813563 216.76456 L 20.029562 216.76456 L 20.029562 219.53356 C 20.029562 220.15356 20.009562 220.71056 19.970563 221.20356 L 20.029562 221.20356 C 20.596563 220.40156 21.436562 220.00156 22.549562 220.00156 Z M 22.373563 221.01956 C 21.543562 221.01956 20.944563 221.25656 20.579562 221.73356 C 20.212562 222.20956 20.029562 223.01156 20.029562 224.13856 C 20.029562 225.26756 20.217562 226.07456 20.592562 226.55956 C 20.968563 227.04556 21.571562 227.28856 22.402563 227.28856 C 23.149563 227.28856 23.706563 227.01656 24.072563 226.47156 C 24.438563 225.92756 24.622563 225.14556 24.622563 224.12456 C 24.622563 223.07956 24.438563 222.30056 24.072563 221.78756 C 23.706563 221.27456 23.140563 221.01956 22.373563 221.01956 Z" fill="#222"/>
          </g>
          <g id="Graphic_55">
            <path d="M 26.731562 220.13356 L 28.035563 220.13356 L 29.793562 224.71156 C 30.179562 225.75656 30.418562 226.51056 30.511562 226.97456 L 30.570562 226.97456 C 30.633563 226.72556 30.766562 226.29956 30.969562 225.69656 C 31.171562 225.09356 31.834562 223.23956 32.957562 220.13456 L 34.261562 220.13456 L 30.811562 229.27556 C 30.469562 230.17856 30.071563 230.81956 29.614562 231.19856 C 29.158562 231.57656 28.597562 231.76556 27.933562 231.76556 C 27.562562 231.76556 27.196562 231.72356 26.834562 231.64056 L 26.834562 230.66656 C 27.103562 230.72556 27.402562 230.75456 27.734562 230.75456 C 28.570562 230.75456 29.165562 230.28556 29.521562 229.34856 L 29.968562 228.20556 Z" fill="#222"/>
          </g>
          <g id="Graphic_54">
            <path d="M 45.68656 225.31056 C 45.68656 226.25356 45.34456 226.98856 44.66156 227.51556 C 43.97856 228.04256 43.05056 228.30656 41.878562 228.30656 C 40.608562 228.30656 39.632562 228.14356 38.948562 227.81656 L 38.948562 226.61556 C 39.387562 226.80156 39.866562 226.94756 40.384562 227.05456 C 40.902562 227.16156 41.414562 227.21456 41.922562 227.21456 C 42.75256 227.21456 43.37756 227.05756 43.79756 226.74256 C 44.21756 226.42756 44.42756 225.98956 44.42756 225.42756 C 44.42756 225.05756 44.35356 224.75256 44.20356 224.51656 C 44.05556 224.27956 43.80656 224.06156 43.45656 223.86156 C 43.10756 223.66156 42.57656 223.43356 41.863562 223.17956 C 40.867562 222.82356 40.155562 222.40156 39.728562 221.91156 C 39.300562 221.42456 39.087562 220.78656 39.087562 220.00056 C 39.087562 219.17556 39.397562 218.51956 40.017562 218.03056 C 40.637562 217.54156 41.457562 217.29856 42.47856 217.29856 C 43.54256 217.29856 44.52156 217.49356 45.41656 217.88456 L 45.02756 218.96856 C 44.14356 218.59756 43.28456 218.41156 42.44956 218.41156 C 41.790562 218.41156 41.274562 218.55356 40.904562 218.83556 C 40.532562 219.11956 40.347562 219.51256 40.347562 220.01556 C 40.347562 220.38656 40.414562 220.69056 40.552562 220.92756 C 40.688562 221.16356 40.919562 221.38156 41.243562 221.57856 C 41.568562 221.77656 42.06456 221.99556 42.73356 222.23356 C 43.85656 222.63456 44.62956 223.06456 45.05156 223.52256 C 45.47556 223.98356 45.68656 224.57856 45.68656 225.31056 Z" fill="#222"/>
          </g>
          <g id="Graphic_53">
            <path d="M 46.41856 220.13356 L 47.72256 220.13356 L 49.48056 224.71156 C 49.86656 225.75656 50.10556 226.51056 50.19856 226.97456 L 50.25756 226.97456 C 50.32056 226.72556 50.45356 226.29956 50.65656 225.69656 C 50.85856 225.09356 51.52156 223.23956 52.64456 220.13456 L 53.94856 220.13456 L 50.49856 229.27556 C 50.15656 230.17856 49.75856 230.81956 49.30156 231.19856 C 48.84556 231.57656 48.28456 231.76556 47.62056 231.76556 C 47.24956 231.76556 46.88356 231.72356 46.52156 231.64056 L 46.52156 230.66656 C 46.79056 230.72556 47.08956 230.75456 47.42156 230.75456 C 48.25756 230.75456 48.85256 230.28556 49.20856 229.34856 L 49.65556 228.20556 Z" fill="#222"/>
          </g>
          <g id="Graphic_52">
            <path d="M 60.42956 225.97056 C 60.42956 226.71656 60.15256 227.29356 59.59556 227.69956 C 59.03856 228.10556 58.25656 228.30656 57.25156 228.30656 C 56.18656 228.30656 55.35556 228.13856 54.76156 227.80056 L 54.76156 226.67356 C 55.14656 226.86856 55.56056 227.02256 56.00256 227.13456 C 56.44356 227.24656 56.87056 227.30256 57.28056 227.30256 C 57.91456 227.30256 58.40256 227.20156 58.74556 226.99856 C 59.08656 226.79656 59.25756 226.48756 59.25756 226.07156 C 59.25756 225.75956 59.12256 225.49256 58.85156 225.26956 C 58.58056 225.04756 58.05156 224.78556 57.26556 224.48256 C 56.51956 224.20456 55.98856 223.96156 55.67256 223.75356 C 55.35856 223.54556 55.12356 223.31056 54.96956 223.04656 C 54.81656 222.78256 54.73956 222.46756 54.73956 222.10256 C 54.73956 221.44856 55.00556 220.93156 55.53756 220.55256 C 56.06956 220.17456 56.80056 219.98556 57.72756 219.98556 C 58.59156 219.98556 59.43656 220.16156 60.26156 220.51256 L 59.82956 221.50056 C 59.02256 221.16956 58.29356 221.00256 57.63956 221.00256 C 57.06356 221.00256 56.62856 221.09356 56.33556 221.27356 C 56.04256 221.45356 55.89656 221.70356 55.89656 222.02056 C 55.89656 222.23556 55.95156 222.41856 56.06156 222.57056 C 56.17056 222.72156 56.34756 222.86556 56.59156 223.00256 C 56.83556 223.13956 57.30456 223.33756 57.99756 223.59656 C 58.95056 223.94356 59.59356 224.29156 59.92856 224.64356 C 60.26256 224.99656 60.42956 225.43856 60.42956 225.97056 Z" fill="#222"/>
          </g>
          <g id="Graphic_51">
            <path d="M 67.33056 228.16056 L 63.69756 218.66856 L 63.63856 218.66856 C 63.70656 219.42056 63.74156 220.31456 63.74156 221.34956 L 63.74156 228.16156 L 62.59256 228.16156 L 62.59256 217.45356 L 64.46756 217.45356 L 67.85856 226.28656 L 67.91756 226.28656 L 71.33756 217.45356 L 73.19856 217.45356 L 73.19856 228.16156 L 71.95256 228.16156 L 71.95256 221.26256 C 71.95256 220.47156 71.98656 219.61256 72.05656 218.68456 L 71.99756 218.68456 L 68.33556 228.16256 L 67.33056 228.16256 Z" fill="#222"/>
          </g>
          <g id="Graphic_50">
            <path d="M 76.13456 228.16056 L 76.13456 217.45256 L 77.37856 217.45256 L 77.37856 227.03256 L 82.10356 227.03256 L 82.10356 228.16056 Z" fill="#222"/>
          </g>
        </g>
        <g id="Group_32">
          <g id="Graphic_48">
            <path d="M 283.30256 295.69756 L 283.30256 302.62656 C 283.30256 303.84756 282.93356 304.80756 282.19656 305.50556 C 281.45956 306.20356 280.44556 306.55256 279.15656 306.55256 C 277.86756 306.55256 276.87056 306.20056 276.16556 305.49756 C 275.45956 304.79456 275.10656 303.82756 275.10656 302.59756 L 275.10656 295.69856 L 276.35156 295.69856 L 276.35156 302.68556 C 276.35156 303.57956 276.59556 304.26556 277.08356 304.74456 C 277.57156 305.22356 278.28956 305.46156 279.23656 305.46156 C 280.13956 305.46156 280.83556 305.22156 281.32356 304.74056 C 281.81156 304.25956 282.05556 303.56956 282.05556 302.67156 L 282.05556 295.69856 L 283.30256 295.69856 Z" fill="#222"/>
          </g>
          <g id="Graphic_47">
            <path d="M 290.87456 306.40656 L 287.24156 296.91456 L 287.18256 296.91456 C 287.25056 297.66656 287.28556 298.56056 287.28556 299.59556 L 287.28556 306.40756 L 286.13656 306.40756 L 286.13656 295.69956 L 288.01156 295.69956 L 291.40256 304.53256 L 291.46156 304.53256 L 294.88156 295.69956 L 296.74256 295.69956 L 296.74256 306.40756 L 295.49656 306.40756 L 295.49656 299.50856 C 295.49656 298.71756 295.53056 297.85856 295.60056 296.93056 L 295.54156 296.93056 L 291.87956 306.40856 L 290.87456 306.40856 Z" fill="#222"/>
          </g>
          <g id="Graphic_46">
            <path d="M 299.67956 306.40656 L 299.67956 295.69856 L 300.92356 295.69856 L 300.92356 305.27856 L 305.64856 305.27856 L 305.64856 306.40656 Z" fill="#222"/>
          </g>
          <g id="Graphic_45">
            <path d="M 314.83956 298.23256 C 315.19556 298.23256 315.51556 298.26156 315.79856 298.32056 L 315.63056 299.44856 C 315.29856 299.37556 315.00556 299.33856 314.75156 299.33856 C 314.10256 299.33856 313.54656 299.60256 313.08556 300.12956 C 312.62356 300.65656 312.39356 301.31456 312.39356 302.10056 L 312.39356 306.40756 L 311.17756 306.40756 L 311.17756 298.38056 L 312.18156 298.38056 L 312.32056 299.86656 L 312.37956 299.86656 C 312.67756 299.34556 313.03556 298.94156 313.45556 298.65856 C 313.87556 298.37556 314.33656 298.23256 314.83956 298.23256 Z" fill="#222"/>
          </g>
          <g id="Graphic_44">
            <path d="M 320.69056 306.55256 C 319.50456 306.55256 318.56856 306.19156 317.88156 305.46856 C 317.19556 304.74556 316.85256 303.74256 316.85256 302.45856 C 316.85256 301.16456 317.17156 300.13656 317.80856 299.37456 C 318.44656 298.61256 319.30156 298.23156 320.37556 298.23156 C 321.38156 298.23156 322.17756 298.56256 322.76356 299.22356 C 323.34956 299.88556 323.64256 300.75856 323.64256 301.84256 L 323.64256 302.61156 L 318.11256 302.61156 C 318.13656 303.55356 318.37556 304.26956 318.82756 304.75756 C 319.27856 305.24656 319.91556 305.48956 320.73556 305.48956 C 321.59856 305.48956 322.45356 305.30956 323.29756 304.94856 L 323.29756 306.03256 C 322.86756 306.21856 322.46156 306.35056 322.07856 306.43056 C 321.69556 306.51256 321.23356 306.55256 320.69056 306.55256 Z M 320.36156 299.24956 C 319.71656 299.24956 319.20356 299.46056 318.81956 299.88056 C 318.43656 300.30056 318.21056 300.88156 318.14156 301.62256 L 322.33856 301.62256 C 322.33856 300.85656 322.16756 300.26856 321.82556 299.86156 C 321.48456 299.45356 320.99656 299.24956 320.36156 299.24956 Z" fill="#222"/>
          </g>
          <g id="Graphic_43">
            <path d="M 326.85856 298.37856 L 326.85856 303.58556 C 326.85856 304.24056 327.00656 304.72856 327.30556 305.05056 C 327.60256 305.37256 328.06956 305.53456 328.70356 305.53456 C 329.54356 305.53456 330.15756 305.30556 330.54556 304.84556 C 330.93456 304.38756 331.12756 303.63756 331.12756 302.59756 L 331.12756 298.37856 L 332.34456 298.37856 L 332.34456 306.40556 L 331.34056 306.40556 L 331.16456 305.32956 L 331.09856 305.32956 C 330.85056 305.72456 330.50456 306.02756 330.06256 306.23756 C 329.62156 306.44656 329.11656 306.55156 328.54956 306.55156 C 327.57256 306.55156 326.84256 306.32056 326.35656 305.85656 C 325.87156 305.39256 325.62756 304.65056 325.62756 303.62956 L 325.62756 298.37756 L 326.85856 298.37756 Z" fill="#222"/>
          </g>
          <g id="Graphic_42">
            <path d="M 340.10156 304.21656 C 340.10156 304.96256 339.82456 305.53956 339.26756 305.94556 C 338.71056 306.35156 337.92856 306.55256 336.92356 306.55256 C 335.85856 306.55256 335.02756 306.38456 334.43356 306.04656 L 334.43356 304.91956 C 334.81856 305.11456 335.23256 305.26856 335.67456 305.38056 C 336.11556 305.49256 336.54256 305.54856 336.95256 305.54856 C 337.58656 305.54856 338.07456 305.44756 338.41756 305.24456 C 338.75856 305.04256 338.92956 304.73356 338.92956 304.31756 C 338.92956 304.00556 338.79456 303.73856 338.52356 303.51556 C 338.25256 303.29356 337.72356 303.03156 336.93756 302.72856 C 336.19156 302.45056 335.66056 302.20756 335.34456 301.99956 C 335.03056 301.79156 334.79556 301.55656 334.64156 301.29256 C 334.48856 301.02856 334.41156 300.71356 334.41156 300.34856 C 334.41156 299.69456 334.67756 299.17756 335.20956 298.79856 C 335.74156 298.42056 336.47256 298.23156 337.39956 298.23156 C 338.26356 298.23156 339.10856 298.40756 339.93356 298.75856 L 339.50156 299.74656 C 338.69456 299.41556 337.96556 299.24856 337.31156 299.24856 C 336.73556 299.24856 336.30056 299.33956 336.00756 299.51956 C 335.71456 299.69956 335.56856 299.94956 335.56856 300.26656 C 335.56856 300.48156 335.62356 300.66456 335.73356 300.81656 C 335.84256 300.96756 336.01956 301.11156 336.26356 301.24856 C 336.50756 301.38556 336.97656 301.58356 337.66956 301.84256 C 338.62256 302.18956 339.26556 302.53756 339.60056 302.88956 C 339.93456 303.24156 340.10156 303.68456 340.10156 304.21656 Z" fill="#222"/>
          </g>
          <g id="Graphic_41">
            <path d="M 345.46956 306.55256 C 344.28356 306.55256 343.34756 306.19156 342.66056 305.46856 C 341.97456 304.74556 341.63156 303.74256 341.63156 302.45856 C 341.63156 301.16456 341.95056 300.13656 342.58756 299.37456 C 343.22556 298.61256 344.08056 298.23156 345.15456 298.23156 C 346.16056 298.23156 346.95656 298.56256 347.54256 299.22356 C 348.12856 299.88556 348.42156 300.75856 348.42156 301.84256 L 348.42156 302.61156 L 342.89156 302.61156 C 342.91556 303.55356 343.15456 304.26956 343.60656 304.75756 C 344.05756 305.24656 344.69456 305.48956 345.51456 305.48956 C 346.37756 305.48956 347.23256 305.30956 348.07656 304.94856 L 348.07656 306.03256 C 347.64656 306.21856 347.24056 306.35056 346.85756 306.43056 C 346.47456 306.51256 346.01256 306.55256 345.46956 306.55256 Z M 345.14056 299.24956 C 344.49556 299.24956 343.98256 299.46056 343.59856 299.88056 C 343.21556 300.30056 342.98956 300.88156 342.92056 301.62256 L 347.11756 301.62256 C 347.11756 300.85656 346.94656 300.26856 346.60456 299.86156 C 346.26356 299.45356 345.77456 299.24956 345.14056 299.24956 Z" fill="#222"/>
          </g>
          <g id="Graphic_40">
            <path d="M 355.95756 305.32956 L 355.89256 305.32956 C 355.33056 306.14456 354.49056 306.55256 353.37256 306.55256 C 352.32156 306.55256 351.50556 306.19356 350.92256 305.47656 C 350.33856 304.75756 350.04656 303.73856 350.04656 302.41456 C 350.04656 301.09256 350.33956 300.06356 350.92556 299.33156 C 351.51156 298.59956 352.32656 298.23256 353.37256 298.23256 C 354.46056 298.23256 355.29556 298.62856 355.87656 299.41956 L 355.97256 299.41956 L 355.92156 298.84056 L 355.89256 298.27756 L 355.89256 295.01056 L 357.10756 295.01056 L 357.10756 306.40656 L 356.11956 306.40656 Z M 353.52556 305.53456 C 354.35556 305.53456 354.95756 305.30756 355.33156 304.85656 C 355.70456 304.40456 355.89256 303.67556 355.89256 302.66956 L 355.89256 302.41256 C 355.89256 301.27556 355.70356 300.46356 355.32456 299.97756 C 354.94656 299.49156 354.34256 299.24856 353.51256 299.24856 C 352.79956 299.24856 352.25356 299.52556 351.87556 300.08056 C 351.49656 300.63456 351.30756 301.41656 351.30756 302.42856 C 351.30756 303.45356 351.49556 304.22756 351.87156 304.74956 C 352.24756 305.27156 352.79856 305.53456 353.52556 305.53456 Z" fill="#222"/>
          </g>
          <g id="Graphic_39">
            <path d="M 367.31756 298.24656 C 368.37256 298.24656 369.19156 298.60656 369.77456 299.32656 C 370.35856 300.04756 370.65056 301.06556 370.65056 302.38456 C 370.65056 303.70356 370.35556 304.72756 369.76756 305.45756 C 369.17856 306.18656 368.36256 306.55256 367.31756 306.55256 C 366.79556 306.55256 366.31756 306.45556 365.88556 306.26356 C 365.45256 306.07056 365.09056 305.77456 364.79756 305.37256 L 364.70956 305.37256 L 364.45256 306.40556 L 363.58156 306.40556 L 363.58156 295.00956 L 364.79756 295.00956 L 364.79756 297.77856 C 364.79756 298.39856 364.77756 298.95556 364.73856 299.44856 L 364.79756 299.44856 C 365.36456 298.64756 366.20456 298.24656 367.31756 298.24656 Z M 367.14256 299.26556 C 366.31256 299.26556 365.71356 299.50256 365.34856 299.97956 C 364.98156 300.45556 364.79856 301.25756 364.79856 302.38456 C 364.79856 303.51356 364.98656 304.32056 365.36156 304.80556 C 365.73756 305.29156 366.34056 305.53456 367.17156 305.53456 C 367.91856 305.53456 368.47556 305.26256 368.84156 304.71756 C 369.20756 304.17356 369.39156 303.39156 369.39156 302.37056 C 369.39156 301.32556 369.20756 300.54656 368.84156 300.03356 C 368.47556 299.52056 367.90856 299.26556 367.14256 299.26556 Z" fill="#222"/>
          </g>
          <g id="Graphic_38">
            <path d="M 371.50056 298.37856 L 372.80456 298.37856 L 374.56256 302.95656 C 374.94856 304.00156 375.18756 304.75556 375.28056 305.21956 L 375.33956 305.21956 C 375.40256 304.97056 375.53556 304.54456 375.73856 303.94156 C 375.94056 303.33856 376.60356 301.48456 377.72656 298.37956 L 379.03056 298.37956 L 375.58056 307.52056 C 375.23856 308.42356 374.84056 309.06456 374.38356 309.44356 C 373.92756 309.82156 373.36656 310.01056 372.70256 310.01056 C 372.33156 310.01056 371.96556 309.96856 371.60356 309.88556 L 371.60356 308.91156 C 371.87256 308.97056 372.17156 308.99956 372.50356 308.99956 C 373.33956 308.99956 373.93456 308.53056 374.29056 307.59356 L 374.73756 306.45056 Z" fill="#222"/>
          </g>
          <g id="Graphic_37">
            <path d="M 390.45556 303.55656 C 390.45556 304.49956 390.11356 305.23456 389.43056 305.76156 C 388.74756 306.28856 387.81956 306.55256 386.64756 306.55256 C 385.37756 306.55256 384.40156 306.38956 383.71756 306.06256 L 383.71756 304.86156 C 384.15656 305.04756 384.63556 305.19356 385.15356 305.30056 C 385.67156 305.40756 386.18356 305.46056 386.69156 305.46056 C 387.52256 305.46056 388.14756 305.30356 388.56656 304.98856 C 388.98656 304.67356 389.19556 304.23556 389.19556 303.67356 C 389.19556 303.30356 389.12156 302.99856 388.97256 302.76256 C 388.82456 302.52556 388.57456 302.30756 388.22456 302.10756 C 387.87656 301.90756 387.34556 301.67956 386.63256 301.42556 C 385.63656 301.06956 384.92456 300.64756 384.49756 300.15756 C 384.06956 299.67056 383.85656 299.03256 383.85656 298.24656 C 383.85656 297.42156 384.16656 296.76556 384.78656 296.27656 C 385.40656 295.78756 386.22656 295.54456 387.24756 295.54456 C 388.31156 295.54456 389.29056 295.73956 390.18556 296.13056 L 389.79656 297.21456 C 388.91156 296.84356 388.05256 296.65756 387.21856 296.65756 C 386.55856 296.65756 386.04356 296.79956 385.67356 297.08156 C 385.30156 297.36556 385.11656 297.75856 385.11656 298.26156 C 385.11656 298.63256 385.18356 298.93656 385.32156 299.17356 C 385.45756 299.40956 385.68856 299.62756 386.01256 299.82456 C 386.33756 300.02256 386.83356 300.24156 387.50356 300.47956 C 388.62656 300.88056 389.39956 301.31056 389.82156 301.76856 C 390.24456 302.22956 390.45556 302.82356 390.45556 303.55656 Z" fill="#222"/>
          </g>
          <g id="Graphic_36">
            <path d="M 391.18756 298.37856 L 392.49256 298.37856 L 394.25056 302.95656 C 394.63556 304.00156 394.87556 304.75556 394.96756 305.21956 L 395.02656 305.21956 C 395.09056 304.97056 395.22356 304.54456 395.42656 303.94156 C 395.62756 303.33856 396.29156 301.48456 397.41456 298.37956 L 398.71756 298.37956 L 395.26856 307.52056 C 394.92656 308.42356 394.52856 309.06456 394.07156 309.44356 C 393.61456 309.82156 393.05356 310.01056 392.38956 310.01056 C 392.01856 310.01056 391.65356 309.96856 391.29156 309.88556 L 391.29156 308.91156 C 391.55956 308.97056 391.85956 308.99956 392.19156 308.99956 C 393.02756 308.99956 393.62156 308.53056 393.97856 307.59356 L 394.42556 306.45056 Z" fill="#222"/>
          </g>
          <g id="Graphic_35">
            <path d="M 405.19956 304.21656 C 405.19956 304.96256 404.92256 305.53956 404.36556 305.94556 C 403.80856 306.35156 403.02556 306.55256 402.02156 306.55256 C 400.95556 306.55256 400.12556 306.38456 399.53156 306.04656 L 399.53156 304.91956 C 399.91656 305.11456 400.33056 305.26856 400.77156 305.38056 C 401.21256 305.49256 401.64056 305.54856 402.05056 305.54856 C 402.68356 305.54856 403.17156 305.44756 403.51556 305.24456 C 403.85556 305.04256 404.02756 304.73356 404.02756 304.31756 C 404.02756 304.00556 403.89256 303.73856 403.62156 303.51556 C 403.35056 303.29356 402.82056 303.03156 402.03556 302.72856 C 401.28956 302.45056 400.75856 302.20756 400.44156 301.99956 C 400.12756 301.79156 399.89256 301.55656 399.73856 301.29256 C 399.58656 301.02856 399.50856 300.71356 399.50856 300.34856 C 399.50856 299.69456 399.77456 299.17756 400.30756 298.79856 C 400.83856 298.42056 401.56956 298.23156 402.49656 298.23156 C 403.36156 298.23156 404.20556 298.40756 405.03156 298.75856 L 404.59956 299.74656 C 403.79256 299.41556 403.06256 299.24856 402.40856 299.24856 C 401.83256 299.24856 401.39856 299.33956 401.10556 299.51956 C 400.81256 299.69956 400.66656 299.94956 400.66656 300.26656 C 400.66656 300.48156 400.72156 300.66456 400.83056 300.81656 C 400.93956 300.96856 401.11756 301.11156 401.36156 301.24856 C 401.60556 301.38556 402.07456 301.58356 402.76756 301.84256 C 403.72056 302.18956 404.36356 302.53756 404.69756 302.88956 C 405.03156 303.24156 405.19956 303.68456 405.19956 304.21656 Z" fill="#222"/>
          </g>
          <g id="Graphic_34">
            <path d="M 412.09756 306.40656 L 408.46456 296.91456 L 408.40556 296.91456 C 408.47356 297.66656 408.50956 298.56056 408.50956 299.59556 L 408.50956 306.40756 L 407.35956 306.40756 L 407.35956 295.69956 L 409.23456 295.69956 L 412.62556 304.53256 L 412.68456 304.53256 L 416.10456 295.69956 L 417.96556 295.69956 L 417.96556 306.40756 L 416.71956 306.40756 L 416.71956 299.50856 C 416.71956 298.71756 416.75456 297.85856 416.82356 296.93056 L 416.76456 296.93056 L 413.10256 306.40856 L 412.09756 306.40856 Z" fill="#222"/>
          </g>
          <g id="Graphic_33">
            <path d="M 420.90256 306.40656 L 420.90256 295.69856 L 422.14656 295.69856 L 422.14656 305.27856 L 426.87156 305.27856 L 426.87156 306.40656 Z" fill="#222"/>
          </g>
        </g>
        <g id="Group_9">
          <g id="Graphic_31">
            <path d="M 501.65656 204.31056 C 501.65656 205.25356 501.31456 205.98856 500.63156 206.51556 C 499.94856 207.04256 499.02056 207.30656 497.84856 207.30656 C 496.57856 207.30656 495.60256 207.14356 494.91856 206.81656 L 494.91856 205.61556 C 495.35756 205.80156 495.83656 205.94756 496.35456 206.05456 C 496.87256 206.16156 497.38456 206.21456 497.89256 206.21456 C 498.72256 206.21456 499.34756 206.05756 499.76756 205.74256 C 500.18756 205.42756 500.39756 204.98956 500.39756 204.42756 C 500.39756 204.05756 500.32356 203.75256 500.17356 203.51656 C 500.02556 203.27956 499.77656 203.06156 499.42656 202.86156 C 499.07756 202.66156 498.54656 202.43356 497.83356 202.17956 C 496.83756 201.82356 496.12556 201.40156 495.69856 200.91156 C 495.27056 200.42456 495.05756 199.78656 495.05756 199.00056 C 495.05756 198.17556 495.36756 197.51956 495.98756 197.03056 C 496.60756 196.54156 497.42756 196.29856 498.44856 196.29856 C 499.51256 196.29856 500.49156 196.49356 501.38656 196.88456 L 500.99756 197.96856 C 500.11356 197.59756 499.25456 197.41156 498.41956 197.41156 C 497.76056 197.41156 497.24456 197.55356 496.87456 197.83556 C 496.50256 198.11956 496.31756 198.51256 496.31756 199.01556 C 496.31756 199.38656 496.38456 199.69056 496.52256 199.92756 C 496.65856 200.16356 496.88956 200.38156 497.21356 200.57856 C 497.53856 200.77656 498.03456 200.99556 498.70356 201.23356 C 499.82656 201.63456 500.59956 202.06456 501.02156 202.52256 C 501.44556 202.98356 501.65656 203.57856 501.65656 204.31056 Z" fill="#222"/>
          </g>
          <g id="Graphic_30">
            <path d="M 502.38856 199.13356 L 503.69256 199.13356 L 505.45056 203.71156 C 505.83656 204.75656 506.07556 205.51056 506.16856 205.97456 L 506.22756 205.97456 C 506.29056 205.72556 506.42356 205.29956 506.62656 204.69656 C 506.82856 204.09356 507.49156 202.23956 508.61456 199.13456 L 509.91856 199.13456 L 506.46856 208.27556 C 506.12656 209.17856 505.72856 209.81956 505.27156 210.19856 C 504.81556 210.57656 504.25456 210.76556 503.59056 210.76556 C 503.21956 210.76556 502.85356 210.72356 502.49156 210.64056 L 502.49156 209.66656 C 502.76056 209.72556 503.05956 209.75456 503.39156 209.75456 C 504.22756 209.75456 504.82256 209.28556 505.17856 208.34856 L 505.62556 207.20556 Z" fill="#222"/>
          </g>
          <g id="Graphic_29">
            <path d="M 516.39956 204.97056 C 516.39956 205.71656 516.12256 206.29356 515.56556 206.69956 C 515.00856 207.10556 514.22656 207.30656 513.22156 207.30656 C 512.15656 207.30656 511.32556 207.13856 510.73156 206.80056 L 510.73156 205.67356 C 511.11656 205.86856 511.53056 206.02256 511.97256 206.13456 C 512.41356 206.24656 512.84056 206.30256 513.25056 206.30256 C 513.88456 206.30256 514.37256 206.20156 514.71556 205.99856 C 515.05656 205.79656 515.22756 205.48756 515.22756 205.07156 C 515.22756 204.75956 515.09256 204.49256 514.82156 204.26956 C 514.55056 204.04756 514.02156 203.78556 513.23556 203.48256 C 512.48956 203.20456 511.95856 202.96156 511.64256 202.75356 C 511.32856 202.54556 511.09356 202.31056 510.93956 202.04656 C 510.78656 201.78256 510.70956 201.46756 510.70956 201.10256 C 510.70956 200.44856 510.97556 199.93156 511.50756 199.55256 C 512.03956 199.17456 512.77056 198.98556 513.69756 198.98556 C 514.56156 198.98556 515.40656 199.16156 516.23156 199.51256 L 515.79956 200.50056 C 514.99256 200.16956 514.26356 200.00256 513.60956 200.00256 C 513.03356 200.00256 512.59856 200.09356 512.30556 200.27356 C 512.01256 200.45356 511.86656 200.70356 511.86656 201.02056 C 511.86656 201.23556 511.92156 201.41856 512.03156 201.57056 C 512.14056 201.72156 512.31756 201.86556 512.56156 202.00256 C 512.80556 202.13956 513.27456 202.33756 513.96756 202.59656 C 514.92056 202.94356 515.56356 203.29156 515.89856 203.64356 C 516.23256 203.99656 516.39956 204.43856 516.39956 204.97056 Z" fill="#222"/>
          </g>
          <g id="Graphic_28">
            <path d="M 523.29956 207.16056 L 519.66656 197.66856 L 519.60756 197.66856 C 519.67556 198.42056 519.71056 199.31456 519.71056 200.34956 L 519.71056 207.16156 L 518.56156 207.16156 L 518.56156 196.45356 L 520.43656 196.45356 L 523.82756 205.28656 L 523.88656 205.28656 L 527.30656 196.45356 L 529.16756 196.45356 L 529.16756 207.16156 L 527.92156 207.16156 L 527.92156 200.26256 C 527.92156 199.47156 527.95556 198.61256 528.02556 197.68456 L 527.96656 197.68456 L 524.30456 207.16256 L 523.29956 207.16256 Z" fill="#222"/>
          </g>
          <g id="Graphic_27">
            <path d="M 532.10356 207.16056 L 532.10356 196.45256 L 533.34756 196.45256 L 533.34756 206.03256 L 538.07256 206.03256 L 538.07256 207.16056 Z" fill="#222"/>
          </g>
          <g id="Graphic_26">
            <path d="M 538.68856 200.12156 L 538.60056 199.96156 C 538.70656 199.52256 538.88056 198.97556 539.12056 198.32056 C 539.36056 197.66556 539.61556 197.04356 539.89056 196.45256 L 540.79056 196.45256 C 540.46856 197.69256 540.21656 198.91656 540.03656 200.12156 Z" fill="#222"/>
          </g>
          <g id="Graphic_25">
            <path d="M 547.43256 204.97056 C 547.43256 205.71656 547.15556 206.29356 546.59856 206.69956 C 546.04156 207.10556 545.25956 207.30656 544.25456 207.30656 C 543.18956 207.30656 542.35856 207.13856 541.76456 206.80056 L 541.76456 205.67356 C 542.14956 205.86856 542.56356 206.02256 543.00556 206.13456 C 543.44656 206.24656 543.87356 206.30256 544.28356 206.30256 C 544.91756 206.30256 545.40556 206.20156 545.74856 205.99856 C 546.08956 205.79656 546.26056 205.48756 546.26056 205.07156 C 546.26056 204.75956 546.12556 204.49256 545.85456 204.26956 C 545.58356 204.04756 545.05456 203.78556 544.26856 203.48256 C 543.52256 203.20456 542.99156 202.96156 542.67556 202.75356 C 542.36156 202.54556 542.12656 202.31056 541.97256 202.04656 C 541.81956 201.78256 541.74256 201.46756 541.74256 201.10256 C 541.74256 200.44856 542.00856 199.93156 542.54056 199.55256 C 543.07256 199.17456 543.80356 198.98556 544.73056 198.98556 C 545.59456 198.98556 546.43956 199.16156 547.26456 199.51256 L 546.83256 200.50056 C 546.02556 200.16956 545.29656 200.00256 544.64256 200.00256 C 544.06656 200.00256 543.63156 200.09356 543.33856 200.27356 C 543.04556 200.45356 542.89956 200.70356 542.89956 201.02056 C 542.89956 201.23556 542.95456 201.41856 543.06456 201.57056 C 543.17356 201.72156 543.35056 201.86556 543.59456 202.00256 C 543.83856 202.13956 544.30756 202.33756 545.00056 202.59656 C 545.95356 202.94356 546.59656 203.29156 546.93156 203.64356 C 547.26556 203.99656 547.43256 204.43856 547.43256 204.97056 Z" fill="#222"/>
          </g>
          <g id="Graphic_24">
            <path d="M 556.69756 207.30656 C 555.51156 207.30656 554.57556 206.94556 553.88856 206.22256 C 553.20256 205.49956 552.85956 204.49656 552.85956 203.21256 C 552.85956 201.91856 553.17856 200.89056 553.81556 200.12856 C 554.45356 199.36656 555.30856 198.98556 556.38256 198.98556 C 557.38856 198.98556 558.18456 199.31656 558.77056 199.97756 C 559.35656 200.63956 559.64956 201.51256 559.64956 202.59656 L 559.64956 203.36556 L 554.11956 203.36556 C 554.14356 204.30756 554.38256 205.02356 554.83456 205.51156 C 555.28556 206.00056 555.92256 206.24356 556.74256 206.24356 C 557.60556 206.24356 558.46056 206.06356 559.30456 205.70256 L 559.30456 206.78656 C 558.87456 206.97256 558.46856 207.10456 558.08556 207.18456 C 557.70256 207.26656 557.24056 207.30656 556.69756 207.30656 Z M 556.36856 200.00456 C 555.72356 200.00456 555.21056 200.21556 554.82656 200.63556 C 554.44356 201.05556 554.21756 201.63656 554.14856 202.37756 L 558.34556 202.37756 C 558.34556 201.61156 558.17456 201.02356 557.83256 200.61656 C 557.49156 200.20856 557.00256 200.00456 556.36856 200.00456 Z" fill="#222"/>
          </g>
          <g id="Graphic_23">
            <path d="M 563.65556 203.05156 L 560.86456 199.13356 L 562.24956 199.13356 L 564.36656 202.20956 L 566.47556 199.13356 L 567.84456 199.13356 L 565.05356 203.05156 L 567.99156 207.16056 L 566.61456 207.16056 L 564.36656 203.90856 L 562.09556 207.16056 L 560.71856 207.16056 Z" fill="#222"/>
          </g>
          <g id="Graphic_22">
            <path d="M 572.17356 206.30256 C 572.38856 206.30256 572.59556 206.28656 572.79556 206.25556 C 572.99556 206.22356 573.15456 206.19156 573.27256 206.15556 L 573.27256 207.08656 C 573.14056 207.14956 572.94656 207.20256 572.69056 207.24356 C 572.43356 207.28556 572.20356 207.30556 571.99856 207.30556 C 570.44556 207.30556 569.66956 206.48856 569.66956 204.85256 L 569.66956 200.07756 L 568.51956 200.07756 L 568.51956 199.49156 L 569.66956 198.98556 L 570.18256 197.27156 L 570.88556 197.27156 L 570.88556 199.13156 L 573.21456 199.13156 L 573.21456 200.07656 L 570.88556 200.07656 L 570.88556 204.80056 C 570.88556 205.28356 570.99956 205.65456 571.23056 205.91356 C 571.45756 206.17456 571.77356 206.30256 572.17356 206.30256 Z" fill="#222"/>
          </g>
          <g id="Graphic_21">
            <path d="M 578.26656 207.30656 C 577.08056 207.30656 576.14456 206.94556 575.45756 206.22256 C 574.77156 205.49956 574.42856 204.49656 574.42856 203.21256 C 574.42856 201.91856 574.74756 200.89056 575.38456 200.12856 C 576.02256 199.36656 576.87756 198.98556 577.95156 198.98556 C 578.95756 198.98556 579.75356 199.31656 580.33956 199.97756 C 580.92556 200.63956 581.21856 201.51256 581.21856 202.59656 L 581.21856 203.36556 L 575.68856 203.36556 C 575.71256 204.30756 575.95156 205.02356 576.40356 205.51156 C 576.85456 206.00056 577.49156 206.24356 578.31156 206.24356 C 579.17456 206.24356 580.02956 206.06356 580.87356 205.70256 L 580.87356 206.78656 C 580.44356 206.97256 580.03756 207.10456 579.65456 207.18456 C 579.27156 207.26656 578.80956 207.30656 578.26656 207.30656 Z M 577.93756 200.00456 C 577.29256 200.00456 576.77956 200.21556 576.39556 200.63556 C 576.01256 201.05556 575.78656 201.63656 575.71756 202.37756 L 579.91456 202.37756 C 579.91456 201.61156 579.74356 201.02356 579.40156 200.61656 C 579.06056 200.20856 578.57256 200.00456 577.93756 200.00456 Z" fill="#222"/>
          </g>
          <g id="Graphic_20">
            <path d="M 588.78556 207.16056 L 588.78556 201.96756 C 588.78556 201.31456 588.63656 200.82456 588.33956 200.50256 C 588.04056 200.18056 587.57456 200.02056 586.94056 200.02056 C 586.10056 200.02056 585.48556 200.24756 585.09456 200.70156 C 584.70356 201.15556 584.50856 201.90556 584.50856 202.95056 L 584.50856 207.16156 L 583.29256 207.16156 L 583.29256 199.13456 L 584.28056 199.13456 L 584.47856 200.23356 L 584.53756 200.23356 C 584.78656 199.83756 585.13556 199.53156 585.58556 199.31456 C 586.03356 199.09656 586.53456 198.98856 587.08656 198.98856 C 588.05356 198.98856 588.78056 199.22156 589.26956 199.68756 C 589.75756 200.15456 590.00156 200.90056 590.00156 201.92556 L 590.00156 207.16156 L 588.78556 207.16156 Z" fill="#222"/>
          </g>
          <g id="Graphic_19">
            <path d="M 597.67656 204.97056 C 597.67656 205.71656 597.39956 206.29356 596.84256 206.69956 C 596.28556 207.10556 595.50356 207.30656 594.49856 207.30656 C 593.43356 207.30656 592.60256 207.13856 592.00856 206.80056 L 592.00856 205.67356 C 592.39356 205.86856 592.80756 206.02256 593.24956 206.13456 C 593.69056 206.24656 594.11756 206.30256 594.52756 206.30256 C 595.16156 206.30256 595.64956 206.20156 595.99256 205.99856 C 596.33356 205.79656 596.50456 205.48756 596.50456 205.07156 C 596.50456 204.75956 596.36956 204.49256 596.09856 204.26956 C 595.82756 204.04756 595.29856 203.78556 594.51256 203.48256 C 593.76656 203.20456 593.23556 202.96156 592.91956 202.75356 C 592.60556 202.54556 592.37056 202.31056 592.21656 202.04656 C 592.06356 201.78256 591.98656 201.46756 591.98656 201.10256 C 591.98656 200.44856 592.25256 199.93156 592.78456 199.55256 C 593.31656 199.17456 594.04756 198.98556 594.97456 198.98556 C 595.83856 198.98556 596.68356 199.16156 597.50856 199.51256 L 597.07656 200.50056 C 596.26956 200.16956 595.54056 200.00256 594.88656 200.00256 C 594.31056 200.00256 593.87556 200.09356 593.58256 200.27356 C 593.28956 200.45356 593.14356 200.70356 593.14356 201.02056 C 593.14356 201.23556 593.19856 201.41856 593.30856 201.57056 C 593.41756 201.72156 593.59456 201.86556 593.83856 202.00256 C 594.08256 202.13956 594.55156 202.33756 595.24456 202.59656 C 596.19756 202.94356 596.84056 203.29156 597.17556 203.64356 C 597.50956 203.99656 597.67656 204.43856 597.67656 204.97056 Z" fill="#222"/>
          </g>
          <g id="Graphic_18">
            <path d="M 599.55156 196.95756 C 599.55156 196.68056 599.61956 196.47656 599.75656 196.34656 C 599.89356 196.21756 600.06456 196.15356 600.26956 196.15356 C 600.46456 196.15356 600.63256 196.21856 600.77556 196.35056 C 600.91656 196.48256 600.98756 196.68556 600.98756 196.95756 C 600.98756 197.23156 600.91656 197.43556 600.77556 197.56956 C 600.63256 197.70356 600.46456 197.77056 600.26956 197.77056 C 600.06456 197.77056 599.89356 197.70356 599.75656 197.56956 C 599.62056 197.43456 599.55156 197.23156 599.55156 196.95756 Z M 600.87056 207.16056 L 599.65456 207.16056 L 599.65456 199.13356 L 600.87056 199.13356 Z" fill="#222"/>
          </g>
          <g id="Graphic_17">
            <path d="M 610.37656 203.13856 C 610.37656 204.44856 610.04756 205.46956 609.38756 206.20356 C 608.72956 206.93856 607.81856 207.30656 606.65656 207.30656 C 605.93856 207.30656 605.30256 207.13856 604.74556 206.80056 C 604.18856 206.46456 603.75856 205.98056 603.45656 205.35156 C 603.15256 204.72056 603.00156 203.98456 603.00156 203.13856 C 603.00156 201.83056 603.32856 200.81156 603.98356 200.08056 C 604.63656 199.35156 605.54556 198.98556 606.70856 198.98556 C 607.83056 198.98556 608.72356 199.35856 609.38556 200.10656 C 610.04556 200.85356 610.37656 201.86556 610.37656 203.13856 Z M 604.26056 203.13856 C 604.26056 204.16356 604.46556 204.94656 604.87556 205.48256 C 605.28556 206.02056 605.88956 206.28956 606.68556 206.28956 C 607.48156 206.28956 608.08556 206.02156 608.49756 205.48656 C 608.91056 204.95256 609.11656 204.17056 609.11656 203.13856 C 609.11656 202.11856 608.91056 201.34356 608.49756 200.81356 C 608.08556 200.28456 607.47656 200.01956 606.67056 200.01956 C 605.87456 200.01956 605.27456 200.28056 604.86856 200.80256 C 604.46256 201.32456 604.26056 202.10456 604.26056 203.13856 Z" fill="#222"/>
          </g>
          <g id="Graphic_16">
            <path d="M 618.00156 207.16056 L 618.00156 201.96756 C 618.00156 201.31456 617.85256 200.82456 617.55556 200.50256 C 617.25656 200.18056 616.79056 200.02056 616.15656 200.02056 C 615.31656 200.02056 614.70156 200.24756 614.31056 200.70156 C 613.91956 201.15556 613.72456 201.90556 613.72456 202.95056 L 613.72456 207.16156 L 612.50856 207.16156 L 612.50856 199.13456 L 613.49656 199.13456 L 613.69456 200.23356 L 613.75356 200.23356 C 614.00256 199.83756 614.35156 199.53156 614.80156 199.31456 C 615.24956 199.09656 615.75056 198.98856 616.30256 198.98856 C 617.26956 198.98856 617.99656 199.22156 618.48556 199.68756 C 618.97356 200.15456 619.21756 200.90056 619.21756 201.92556 L 619.21756 207.16156 L 618.00156 207.16156 Z" fill="#222"/>
          </g>
          <g id="Graphic_15">
            <path d="M 626.89256 204.97056 C 626.89256 205.71656 626.61556 206.29356 626.05856 206.69956 C 625.50156 207.10556 624.71956 207.30656 623.71456 207.30656 C 622.64956 207.30656 621.81856 207.13856 621.22456 206.80056 L 621.22456 205.67356 C 621.60956 205.86856 622.02356 206.02256 622.46556 206.13456 C 622.90656 206.24656 623.33356 206.30256 623.74356 206.30256 C 624.37756 206.30256 624.86556 206.20156 625.20856 205.99856 C 625.54956 205.79656 625.72056 205.48756 625.72056 205.07156 C 625.72056 204.75956 625.58556 204.49256 625.31456 204.26956 C 625.04356 204.04756 624.51456 203.78556 623.72856 203.48256 C 622.98256 203.20456 622.45156 202.96156 622.13556 202.75356 C 621.82156 202.54556 621.58656 202.31056 621.43256 202.04656 C 621.27956 201.78256 621.20256 201.46756 621.20256 201.10256 C 621.20256 200.44856 621.46856 199.93156 622.00056 199.55256 C 622.53256 199.17456 623.26356 198.98556 624.19056 198.98556 C 625.05456 198.98556 625.89956 199.16156 626.72456 199.51256 L 626.29256 200.50056 C 625.48556 200.16956 624.75656 200.00256 624.10256 200.00256 C 623.52656 200.00256 623.09156 200.09356 622.79856 200.27356 C 622.50556 200.45356 622.35956 200.70356 622.35956 201.02056 C 622.35956 201.23556 622.41456 201.41856 622.52456 201.57056 C 622.63356 201.72156 622.81056 201.86556 623.05456 202.00256 C 623.29856 202.13956 623.76756 202.33756 624.46056 202.59656 C 625.41356 202.94356 626.05656 203.29156 626.39156 203.64356 C 626.72556 203.99656 626.89256 204.43856 626.89256 204.97056 Z" fill="#222"/>
          </g>
          <g id="Graphic_14">
            <path d="M 541.44156 227.30256 C 541.65656 227.30256 541.86356 227.28656 542.06356 227.25556 C 542.26356 227.22356 542.42256 227.19156 542.54056 227.15556 L 542.54056 228.08656 C 542.40856 228.14956 542.21456 228.20256 541.95856 228.24356 C 541.70156 228.28556 541.47156 228.30556 541.26656 228.30556 C 539.71356 228.30556 538.93756 227.48856 538.93756 225.85256 L 538.93756 221.07756 L 537.78756 221.07756 L 537.78756 220.49156 L 538.93756 219.98556 L 539.45056 218.27156 L 540.15356 218.27156 L 540.15356 220.13156 L 542.48256 220.13156 L 542.48256 221.07656 L 540.15356 221.07656 L 540.15356 225.80056 C 540.15356 226.28356 540.26756 226.65456 540.49856 226.91356 C 540.72556 227.17456 541.04056 227.30256 541.44156 227.30256 Z" fill="#222"/>
          </g>
          <g id="Graphic_13">
            <path d="M 551.07256 224.13856 C 551.07256 225.44856 550.74356 226.46956 550.08356 227.20356 C 549.42556 227.93856 548.51456 228.30656 547.35256 228.30656 C 546.63456 228.30656 545.99856 228.13856 545.44156 227.80056 C 544.88456 227.46456 544.45456 226.98056 544.15256 226.35156 C 543.84856 225.72056 543.69756 224.98456 543.69756 224.13856 C 543.69756 222.83056 544.02456 221.81156 544.67956 221.08056 C 545.33256 220.35156 546.24156 219.98556 547.40456 219.98556 C 548.52656 219.98556 549.41956 220.35856 550.08156 221.10656 C 550.74156 221.85356 551.07256 222.86556 551.07256 224.13856 Z M 544.95556 224.13856 C 544.95556 225.16356 545.16056 225.94656 545.57056 226.48256 C 545.98056 227.02056 546.58456 227.28956 547.38056 227.28956 C 548.17656 227.28956 548.78056 227.02156 549.19256 226.48656 C 549.60556 225.95256 549.81156 225.17056 549.81156 224.13856 C 549.81156 223.11856 549.60556 222.34356 549.19256 221.81356 C 548.78056 221.28456 548.17156 221.01956 547.36556 221.01956 C 546.56956 221.01956 545.96956 221.28056 545.56356 221.80256 C 545.15756 222.32456 544.95556 223.10456 544.95556 224.13856 Z" fill="#222"/>
          </g>
          <g id="Graphic_12">
            <path d="M 565.37056 217.45256 L 565.37056 224.38156 C 565.37056 225.60256 565.00156 226.56256 564.26456 227.26056 C 563.52756 227.95856 562.51356 228.30756 561.22456 228.30756 C 559.93556 228.30756 558.93856 227.95556 558.23356 227.25256 C 557.52756 226.54956 557.17456 225.58256 557.17456 224.35256 L 557.17456 217.45356 L 558.41956 217.45356 L 558.41956 224.44056 C 558.41956 225.33456 558.66356 226.02056 559.15156 226.49956 C 559.63956 226.97856 560.35756 227.21656 561.30456 227.21656 C 562.20756 227.21656 562.90356 226.97656 563.39156 226.49556 C 563.87956 226.01456 564.12356 225.32456 564.12356 224.42656 L 564.12356 217.45356 L 565.37056 217.45356 Z" fill="#222"/>
          </g>
          <g id="Graphic_11">
            <path d="M 572.94256 228.16056 L 569.30956 218.66856 L 569.25056 218.66856 C 569.31856 219.42056 569.35356 220.31456 569.35356 221.34956 L 569.35356 228.16156 L 568.20456 228.16156 L 568.20456 217.45356 L 570.07956 217.45356 L 573.47056 226.28656 L 573.52956 226.28656 L 576.94956 217.45356 L 578.81056 217.45356 L 578.81056 228.16156 L 577.56456 228.16156 L 577.56456 221.26256 C 577.56456 220.47156 577.59856 219.61256 577.66856 218.68456 L 577.60956 218.68456 L 573.94756 228.16256 L 572.94256 228.16256 Z" fill="#222"/>
          </g>
          <g id="Graphic_10">
            <path d="M 581.74756 228.16056 L 581.74756 217.45256 L 582.99156 217.45256 L 582.99156 227.03256 L 587.71656 227.03256 L 587.71656 228.16056 Z" fill="#222"/>
          </g>
        </g>
        <g id="Line_8">
          <line x1="350.72656" y1="285.98956" x2="350.72656" y2="215.28956" marker-end="url(#SharpArrow_Marker)" stroke="#444" stroke-linecap="butt" stroke-linejoin="round" stroke-width="2"/>
        </g>
        <g id="Line_6">
          <line x1="104.72656" y1="201.98956" x2="175.42656" y2="201.98956" marker-end="url(#SharpArrow_Marker)" stroke="#444" stroke-linecap="butt" stroke-linejoin="round" stroke-width="2"/>
        </g>
        <g id="Line_4">
          <line x1="486.72656" y1="201.98956" x2="416.02656" y2="201.98956" marker-end="url(#SharpArrow_Marker)" stroke="#444" stroke-linecap="butt" stroke-linejoin="round" stroke-width="2"/>
        </g>
      </g>
    </g>
  </g>
</svg>
